<?xml version="1.0" encoding="utf-8"?>
<!-- Generator: Adobe Illustrator 16.0.0, SVG Export Plug-In . SVG Version: 6.00 Build 0)  -->
<!DOCTYPE svg PUBLIC "-//W3C//DTD SVG 1.1//EN" "http://www.w3.org/Graphics/SVG/1.1/DTD/svg11.dtd">
<svg version="1.1" id="Layer_1" xmlns="http://www.w3.org/2000/svg" xmlns:xlink="http://www.w3.org/1999/xlink" x="0px" y="0px"
	 width="488px" height="113px" viewBox="0 0 488 113" enable-background="new 0 0 488 113" xml:space="preserve">
<text transform="matrix(1 0 0 1 91.5557 79.2222)" fill="#FFFFFF" font-family="'PatuaOne-Regular'" font-size="72">soundboost</text>
<g>
	<g>
		<g>
			<path fill="#FFFFFF" d="M76.845,88.973l-20.18-55.121c1.096-0.929,1.792-2.312,1.792-3.859c0-2.792-2.263-5.056-5.056-5.056
				c-2.792,0-5.055,2.264-5.055,5.056c0,1.547,0.696,2.931,1.792,3.859l-20.18,55.121H76.845z M71.434,83.997l-28.57-8.504h25.458
				L71.434,83.997z M53.401,28.306c0.93,0,1.685,0.757,1.685,1.687c0,0.929-0.755,1.685-1.685,1.685
				c-0.929,0-1.685-0.756-1.685-1.685C51.716,29.063,52.472,28.306,53.401,28.306z M53.29,35.045c0.037,0,0.074,0.002,0.111,0.002
				s0.074-0.002,0.111-0.002l4.937,13.483H48.353L53.29,35.045z M59.684,51.901l1.624,4.438l-13.253-4.438H59.684z M46.062,54.786
				l11.506,3.854H44.651L46.062,54.786z M63.384,62.012l2.69,7.346l-22.01-7.346H63.384L63.384,62.012z M42.329,64.984l21.381,7.139
				H39.715L42.329,64.984z M65.018,85.604H34.78l2.972-8.117L65.018,85.604z"/>
		</g>
	</g>
	<g>
		<g>
			<path fill="#FFFFFF" d="M66.275,21.972c-0.299-0.472-0.825-0.785-1.425-0.785c-0.928,0-1.684,0.756-1.684,1.687
				c0,0.356,0.111,0.686,0.301,0.959c1.126,1.835,1.728,3.95,1.728,6.16c0,2.208-0.602,4.324-1.728,6.159
				c-0.19,0.272-0.301,0.603-0.301,0.96c0,0.931,0.756,1.685,1.684,1.685c0.6,0,1.126-0.312,1.425-0.784
				c1.454-2.326,2.293-5.075,2.293-8.02C68.568,27.047,67.729,24.298,66.275,21.972z"/>
		</g>
	</g>
	<g>
		<g>
			<path fill="#FFFFFF" d="M74.169,15.581l-0.002,0.001c-0.296-0.476-0.825-0.793-1.427-0.793c-0.928,0-1.684,0.755-1.684,1.686
				c0,0.354,0.108,0.683,0.296,0.956c0.884,1.257,1.632,2.606,2.237,4.035c1.14,2.699,1.718,5.567,1.718,8.526
				s-0.578,5.827-1.718,8.526c-0.605,1.429-1.353,2.777-2.237,4.037c-0.188,0.271-0.296,0.6-0.296,0.955
				c0,0.931,0.755,1.685,1.684,1.685c0.602,0,1.13-0.317,1.427-0.793l0.002,0.002c2.841-4.09,4.51-9.055,4.51-14.412
				C78.679,24.635,77.01,19.668,74.169,15.581z"/>
		</g>
	</g>
	<g>
		<g>
			<path fill="#FFFFFF" d="M81.752,8.808L81.75,8.811c-0.306-0.438-0.81-0.727-1.387-0.727c-0.928,0-1.684,0.755-1.684,1.686
				c0,0.392,0.133,0.751,0.355,1.037c0.007,0.008,0.015,0.016,0.022,0.024c1.548,2.063,2.836,4.304,3.848,6.698
				c1.669,3.946,2.513,8.138,2.513,12.462s-0.844,8.517-2.513,12.463c-1.012,2.394-2.301,4.633-3.848,6.698
				c-0.007,0.009-0.015,0.016-0.022,0.024c-0.222,0.285-0.355,0.646-0.355,1.037c0,0.931,0.755,1.686,1.684,1.686
				c0.578,0,1.081-0.288,1.387-0.726h0.002c4.421-5.906,7.038-13.238,7.038-21.183S86.173,14.714,81.752,8.808z"/>
		</g>
	</g>
	<g>
		<g>
			<path fill="#FFFFFF" d="M41.605,29.992c0-2.209,0.603-4.324,1.73-6.16c0.189-0.272,0.301-0.602,0.301-0.959
				c0-0.931-0.755-1.686-1.686-1.686c-0.599,0-1.124,0.313-1.424,0.785c-1.453,2.326-2.292,5.075-2.292,8.02
				c0,2.945,0.839,5.694,2.292,8.021c0.3,0.472,0.825,0.784,1.424,0.784c0.931,0,1.686-0.754,1.686-1.685
				c0-0.357-0.112-0.688-0.301-0.961C42.208,34.317,41.605,32.2,41.605,29.992z"/>
		</g>
	</g>
	<g>
		<g>
			<path fill="#FFFFFF" d="M33.213,38.519c-1.14-2.699-1.719-5.568-1.719-8.526c0-2.96,0.579-5.828,1.719-8.526
				c0.605-1.43,1.353-2.778,2.237-4.036c0.186-0.273,0.297-0.602,0.297-0.955c0-0.931-0.755-1.687-1.686-1.687
				c-0.603,0-1.129,0.317-1.427,0.794l-0.001-0.002c-2.843,4.088-4.51,9.056-4.51,14.412s1.667,10.322,4.51,14.411l0.001-0.001
				c0.297,0.475,0.824,0.792,1.427,0.792c0.931,0,1.686-0.754,1.686-1.685c0-0.355-0.111-0.684-0.297-0.955
				C34.566,41.295,33.818,39.947,33.213,38.519z"/>
		</g>
	</g>
	<g>
		<g>
			<path fill="#FFFFFF" d="M27.767,49.178c-0.008-0.009-0.015-0.017-0.021-0.025c-1.546-2.064-2.835-4.305-3.849-6.698
				c-1.668-3.946-2.514-8.139-2.514-12.462c0-4.325,0.846-8.517,2.514-12.463c1.014-2.395,2.302-4.635,3.849-6.698
				c0.006-0.009,0.014-0.017,0.021-0.024c0.224-0.286,0.357-0.646,0.357-1.037c0-0.931-0.754-1.686-1.685-1.686
				c-0.575,0-1.081,0.288-1.386,0.727L25.05,8.808c-4.42,5.906-7.038,13.239-7.038,21.185c0,7.943,2.618,15.276,7.038,21.182h0.002
				c0.305,0.438,0.811,0.727,1.386,0.727c0.931,0,1.685-0.756,1.685-1.687C28.124,49.823,27.99,49.463,27.767,49.178z"/>
		</g>
	</g>
	<g>
	</g>
	<g>
	</g>
	<g>
	</g>
	<g>
	</g>
	<g>
	</g>
	<g>
	</g>
	<g>
	</g>
	<g>
	</g>
	<g>
	</g>
	<g>
	</g>
	<g>
	</g>
	<g>
	</g>
	<g>
	</g>
	<g>
	</g>
	<g>
	</g>
</g>
<rect id="_x3C_Slice_x3E_" fill="none" width="488" height="113"/>
</svg>
